<?xml version="1.0" encoding="UTF-8" standalone="no"?>
<svg
   viewBox="0 0 300 300"
   width="300"
   height="300"
   version="1.1"
   xmlns="http://www.w3.org/2000/svg">
  <path
     d="M 87.5,62.62 C 38.625,73.747 25,115.497 25,162.62 c 0,62.5 55.875,112.5 125,112.5 61.125,0 125,-35.5 125,-125 0,-37.5 -14.625,-75 -50,-87.5 -2.38096,5.634759 -6.86524,10.119042 -12.5,12.5 6.75,2.376 17.75,17.376 25,25 -3.875,10.126 -22.5,19 -54.25,12.5 1.91275,12.42683 1.91275,25.07317 0,37.5 -23.28529,0.41766 -43.88108,-15.02918 -50,-37.5 -30.125,18.75 -71.625,-4 -70.75,-12.5 24.762944,-19.406013 37.59842,-16.56088 25,-37.5 z"
     id="path2"
     style="fill:#e62b16;fill-opacity:1" />
  <path
     d="M 162.5,24.999999 C 157.51848,32.900376 153.33139,41.274554 150,50 c -1.5,4.126 -2.75,8.25 -3.875,12.5 -7.75,-21.75 -43.75,-18.25 -58.624997,-25 0,42.25 43.999997,27.626 53.124997,34 C 105.25,68.5 92.374998,92.376 75.000003,100 113.75,119.626 137.5,100.75 146.5,77 c -1.375,9.25 -8.125,61.5 28.5,60.5 1.23095,-21.68125 -4.5071,-43.187614 -16.375,-61.374 h 0.75 C 175,94.876 199.25,116.25 225,100 212.35004,86.858828 196.001,77.877755 178.125,74.25 198,75 211.375,76.626 225,50 c -20.34018,-1.603806 -40.70802,2.739017 -58.625,12.5 5.875,-10 14.75,-25 21.125,-37.500001 z M 237.5,100 c -158.333333,-66.666667 -79.16667,-33.333333 0,0 z"
     id="path2-4"
     style="fill:#009c16;fill-opacity:1" />
</svg>
